<svg xmlns="http://www.w3.org/2000/svg" width="16" height="16" viewBox="0 0 16 16">
  <g id="Group_10069" data-name="Group 10069" transform="translate(4230 -2497)">
    <rect id="Rectangle_852" data-name="Rectangle 852" width="16" height="16" rx="8" transform="translate(-4230 2497)" fill="#feeb01"/>
    <path id="dove" d="M14.463,4.477a.664.664,0,0,1-.255-.143.622.622,0,0,1-.031-.057c-.078-.155-.262-.519-.633-.519a.651.651,0,0,0-.182.027,1.158,1.158,0,0,0-.638.5c-.07.1-.126.174-.188.186a.294.294,0,0,1-.055.006c-.06,0-.093-.023-.1-.067a3.948,3.948,0,0,1-.012-.6,3.1,3.1,0,0,0-.1-1.11,3.807,3.807,0,0,0-1-1.306c-.089-.086-.173-.167-.246-.242-.028-.034-.057-.065-.085-.1A.978.978,0,0,1,10.83.93a3,3,0,0,1-.276-.6l-.02-.066A.31.31,0,0,0,10.5.182C10.457.087,10.41,0,10.338,0A.1.1,0,0,0,10.3.007c-.124.047-.151.3-.175.529a1.284,1.284,0,0,1-.047.28.424.424,0,0,1-.122.154.409.409,0,0,0-.143.205.269.269,0,0,0,.027.214.252.252,0,0,1,.032.165.3.3,0,0,1-.089.164.3.3,0,0,0-.093.186.284.284,0,0,0,.088.211.259.259,0,0,1,.079.167c0,.058-.035.087-.079.123a.238.238,0,0,0-.1.251.3.3,0,0,0,.133.188c.053.042.085.07.083.118a.534.534,0,0,1-.025.116.355.355,0,0,0,.023.331,1.64,1.64,0,0,0,.24.222,4.881,4.881,0,0,0-1.227-.389A9.171,9.171,0,0,1,6.978,2.66a1.564,1.564,0,0,0-.309-.11.03.03,0,0,0-.031.019c-.008.022.011.043.057.081l.124.1c.167.138.3.247.353.3q-.041-.014-.116-.047a.045.045,0,0,0-.06.01.055.055,0,0,0-.008.032A5.426,5.426,0,0,0,8,4.618c.422.5,1.234,1.349,1.923,1.349a.8.8,0,0,0,.121-.009,8.216,8.216,0,0,1-2.153,1.4C6.82,7.8,6.338,8.025,6.3,8.2a.12.12,0,0,0,.042.112.2.2,0,0,0,.138.066.283.283,0,0,0,.093-.021.29.29,0,0,1,.1-.021.235.235,0,0,1,.125.042.773.773,0,0,0,.426.146,1.123,1.123,0,0,0,.63-.25.217.217,0,0,1,.131-.046.469.469,0,0,1,.078.009.544.544,0,0,0,.093.01h0a.369.369,0,0,0,.229-.089,3.68,3.68,0,0,1,1.906-.624,4.691,4.691,0,0,0,2.517-.9,2.485,2.485,0,0,0,1.005-1.413c.01-.035.02-.068.03-.1.1-.307.157-.379.23-.4.048-.017.167-.065.272-.107l.156-.062c.026-.009.029-.025.029-.034S14.529,4.493,14.463,4.477Z" transform="translate(-4232.079 2500.478)"/>
  </g>
</svg>
