<svg xmlns="http://www.w3.org/2000/svg" xmlns:xlink="http://www.w3.org/1999/xlink" width="203" height="96" viewBox="0 0 203 96">
  <defs>
    <clipPath id="clip-path">
      <rect id="Rectangle_850" data-name="Rectangle 850" width="203" height="96" transform="translate(83)" fill="#fff"/>
    </clipPath>
  </defs>
  <g id="Mask_Group_14" data-name="Mask Group 14" transform="translate(-83)" clip-path="url(#clip-path)">
    <g id="Group_10067" data-name="Group 10067">
      <g id="Ellipse_322" data-name="Ellipse 322" transform="translate(96 -88)" stroke="#000" stroke-width="1">
        <circle cx="88.5" cy="88.5" r="88.5" stroke="none"/>
        <circle cx="88.5" cy="88.5" r="88" fill="none"/>
      </g>
      <g id="Group_10066" data-name="Group 10066" transform="translate(1.5 -17)">
        <path id="Path_11491" data-name="Path 11491" d="M.988-16.536H15.7q1.222,0,1.222.624t-1.222.624H12.636q-.156,1.274-1.755,8.125T8.892-.312A.818.818,0,0,1,8.45-.559.659.659,0,0,1,8.164-1,9.861,9.861,0,0,1,8.4-2.249q.234-1.053.65-2.873L9.776-8.4A9.382,9.382,0,0,1,7.254-5.967,4.945,4.945,0,0,1,4.628-5.1,2.028,2.028,0,0,1,2.743-6.305a6.58,6.58,0,0,1-.637-3.081,19.588,19.588,0,0,1,.858-5.9H.988q-1.222,0-1.222-.624T.988-16.536Zm2.418,7.2a5.752,5.752,0,0,0,.338,2.2q.338.793.832.793a5.238,5.238,0,0,0,3.692-2.08,10.261,10.261,0,0,0,2.548-4.888q.13-.676.39-1.976H4.42A17.112,17.112,0,0,0,3.406-9.334Zm9-11.83q.312,0,.78.78a2.667,2.667,0,0,1,.468,1.248q0,.468-.325.468t-.923-.637a1.775,1.775,0,0,1-.6-1,1,1,0,0,1,.182-.611A.517.517,0,0,1,12.4-21.164Zm4.966,4.628h17.42q1.222,0,1.222.624t-1.222.624h-3.3a15.528,15.528,0,0,0-.676,2.275q-.078.559-.1.663,1.638.468,1.638,2.652a5.49,5.49,0,0,1-1.391,3.5,11.635,11.635,0,0,1-3.445,2.834A21.749,21.749,0,0,1,23.166-1.56a14.809,14.809,0,0,1-4.16.676,2.235,2.235,0,0,1-1.352-.364,1.214,1.214,0,0,1-.494-1.04,4.891,4.891,0,0,1,1.014-2.678,12.763,12.763,0,0,1,2.392-2.626h-.182a3.537,3.537,0,0,1-1.937-.52,1.614,1.614,0,0,1-.819-1.43A5.208,5.208,0,0,1,19.162-12.6a10.484,10.484,0,0,1,3.328-2.691H17.368q-1.222,0-1.222-.624T17.368-16.536ZM29.068-5.98a4.818,4.818,0,0,0,2-3.51q0-1.768-1.222-1.768a1.873,1.873,0,0,0-1.625.91,3.734,3.734,0,0,0-.611,2.132Q27.612-6.266,29.068-5.98ZM23.036-8.944h.078q.442,0,.442.26,0,.312-.676.806a16.575,16.575,0,0,0-2.925,2.626A4.508,4.508,0,0,0,18.538-2.5q0,.338.39.338A14.955,14.955,0,0,0,23.53-3a17.885,17.885,0,0,0,4.55-2.2,2.759,2.759,0,0,1-1.248-1.209,3.8,3.8,0,0,1-.442-1.833,4.815,4.815,0,0,1,.962-2.938,2.948,2.948,0,0,1,2.47-1.3h.052a6.667,6.667,0,0,1-.052-1.053,4.718,4.718,0,0,1,.39-1.755H25.506a1.814,1.814,0,0,1,.546,1.222.419.419,0,0,1-.117.286.357.357,0,0,1-.273.13q-.156,0-.546-.507a1.094,1.094,0,0,0-.858-.507q-1.378,0-3.393,2T18.85-9.542q0,.858,1.664.858a9.351,9.351,0,0,0,1.4-.13A9.009,9.009,0,0,1,23.036-8.944ZM41.99-16.536q1.222,0,1.222.624t-1.222.624H38.454q-.312,2.392-1.326,7.124Q35.438-.312,34.684-.312a.524.524,0,0,1-.364-.182.65.65,0,0,1-.182-.481,23.725,23.725,0,0,1,.572-2.613,113.125,113.125,0,0,0,2.392-11.7H28.938q-1.222,0-1.222-.624t1.222-.624h2.184A19.364,19.364,0,0,1,32.266-19.6a15.825,15.825,0,0,1,2.067-3.341,3.362,3.362,0,0,1,2.379-1.573q2,0,2,4.966,0,1.378-.13,3.016Zm-4.654-2.106q0-4.5-.806-4.5-.7,0-2.015,2.2A20.983,20.983,0,0,0,32.5-16.536h4.732A19.679,19.679,0,0,0,37.336-18.642Z" transform="translate(139.5 62.5)" fill="#ffec02" stroke="#ffec02" stroke-width="1"/>
        <path id="Path_11492" data-name="Path 11492" d="M1.406-.947a1.131,1.131,0,0,1,.278-.781,1.061,1.061,0,0,1,.835-.312,1.092,1.092,0,0,1,.845.313,1.109,1.109,0,0,1,.288.781A1.048,1.048,0,0,1,3.364-.2a1.112,1.112,0,0,1-.845.3,1.079,1.079,0,0,1-.835-.3A1.069,1.069,0,0,1,1.406-.947Zm10.263-.332a2.6,2.6,0,0,0,1.689-.586,2.061,2.061,0,0,0,.8-1.465h1.709A3.276,3.276,0,0,1,15.243-1.6,4.116,4.116,0,0,1,13.705-.293,4.438,4.438,0,0,1,11.669.2a4.353,4.353,0,0,1-3.433-1.44,5.737,5.737,0,0,1-1.274-3.94v-.3a6.361,6.361,0,0,1,.566-2.744A4.314,4.314,0,0,1,9.154-10.1a4.619,4.619,0,0,1,2.5-.664A4.238,4.238,0,0,1,14.613-9.7a3.8,3.8,0,0,1,1.255,2.764H14.159a2.49,2.49,0,0,0-.776-1.685,2.415,2.415,0,0,0-1.724-.659,2.529,2.529,0,0,0-2.134.991A4.655,4.655,0,0,0,8.769-5.42v.342a4.562,4.562,0,0,0,.752,2.813A2.541,2.541,0,0,0,11.669-1.279Zm6.552-4.1a6.241,6.241,0,0,1,.61-2.793,4.553,4.553,0,0,1,1.7-1.914,4.626,4.626,0,0,1,2.485-.674,4.456,4.456,0,0,1,3.491,1.494A5.748,5.748,0,0,1,27.84-5.293v.127A6.3,6.3,0,0,1,27.249-2.4,4.486,4.486,0,0,1,25.56-.488,4.679,4.679,0,0,1,23.036.2,4.445,4.445,0,0,1,19.554-1.3a5.719,5.719,0,0,1-1.333-3.955Zm1.816.215a4.52,4.52,0,0,0,.815,2.822,2.61,2.61,0,0,0,2.183,1.064,2.594,2.594,0,0,0,2.188-1.079,4.943,4.943,0,0,0,.811-3.022A4.513,4.513,0,0,0,25.208-8.2a2.623,2.623,0,0,0-2.192-1.079,2.594,2.594,0,0,0-2.158,1.064A4.906,4.906,0,0,0,20.038-5.166Zm12.568-5.4.049,1.172a3.9,3.9,0,0,1,3.135-1.367,3.021,3.021,0,0,1,3.018,1.7,4,4,0,0,1,1.372-1.23,4.052,4.052,0,0,1,2-.469q3.477,0,3.535,3.682V0H43.9V-6.973a2.426,2.426,0,0,0-.518-1.694,2.279,2.279,0,0,0-1.738-.562,2.4,2.4,0,0,0-1.67.6,2.436,2.436,0,0,0-.771,1.616V0H37.39V-6.924a2.016,2.016,0,0,0-2.256-2.3A2.417,2.417,0,0,0,32.7-7.715V0H30.9V-10.566Z" transform="translate(180.5 62)" fill="#fff"/>
      </g>
    </g>
  </g>
</svg>
